Coordinates
version=1
nRows=19
nColumns=34
inDegrees=yes

Units are S.I. units (second, meters, Newtons, ...)
If the header above contains a line with 'inDegrees', this indicates whether rotational values are in degrees (yes) or radians (no).

endheader
time	pelvis_tilt	pelvis_list	pelvis_rotation	pelvis_tx	pelvis_ty	pelvis_tz	hip_flexion_r	hip_adduction_r	hip_rotation_r	knee_angle_r	ankle_angle_r	subtalar_angle_r	mtp_angle_r	hip_flexion_l	hip_adduction_l	hip_rotation_l	knee_angle_l	ankle_angle_l	subtalar_angle_l	mtp_angle_l	lumbar_extension	lumbar_bending	lumbar_rotation	arm_flex_r	arm_add_r	arm_rot_r	elbow_flex_r	pro_sup_r	arm_flex_l	arm_add_l	arm_rot_l	elbow_flex_l	pro_sup_l
      0.00000000	     -1.84390417	     -1.01724150	      3.48320184	      1.60696953	      0.87629102	     -0.01350181	      1.77512648	     -3.88730421	     -6.01954703	      7.31780240	      2.07348605	    -19.97371410	      0.00000000	      4.41167854	     -6.94705707	      0.22208275	      6.46055483	      8.40238465	      0.22206978	      0.00000000	     -6.84330683	      1.04435493	     -0.01542733	     11.12948089	     -4.21490052	     31.26619830	     76.73092610	     97.17197752	      3.39257585	     -5.49462772	     24.97907673	     66.98457140	     83.78975039
      0.01666670	     -3.49431332	     -1.21809729	      4.16139701	      1.60856444	      0.87407057	     -0.01376666	      3.41367997	     -3.26896629	     -5.75749579	      6.95726636	      4.25867910	    -18.60514432	      0.00000000	      6.85851235	     -6.49105612	      1.92739982	      6.52023053	      8.33006662	      0.75859771	      0.00000000	     -3.90483573	      1.24749673	      0.47239322	      9.55849351	     -3.87987918	     28.17441867	     76.24979004	     95.92349291	      3.09325172	     -5.10255150	     24.10932454	     65.04482091	     82.37222030
      0.03333330	     -3.65073906	     -0.68632399	      4.36874854	      1.60814706	      0.87389037	     -0.01303738	      3.07609190	     -3.76464029	     -6.16886633	      5.91794942	      3.98173381	    -18.79098285	      0.00000000	      6.97803949	     -6.10026361	      2.12720533	      6.06456125	      7.61179263	      1.18075995	      0.00000000	     -3.54439404	      0.37873465	      1.96931949	      8.66414515	     -3.73685179	     25.95940399	     76.34851768	     94.74365676	      5.17170465	     -5.62026191	     26.56484483	     62.98027066	     79.86873702
      0.05000000	     -3.13272915	     -0.20915365	      4.62265605	      1.60766692	      0.87514829	     -0.01272968	      2.10693400	     -4.27056042	     -6.39232976	      5.34887222	      3.99992081	    -18.98700179	      0.00000000	      5.97094741	     -5.68698107	      2.83796819	      5.23760308	      7.01480988	      0.69210152	      0.00000000	     -4.10238790	     -0.30723437	      2.17424610	      8.61489551	     -3.77813991	     25.92672055	     76.27485109	     94.63037918	      5.74777217	     -6.05090658	     26.63135840	     62.70647036	     79.65979105
      0.06666670	     -3.16791501	     -0.12999176	      4.67710729	      1.60704956	      0.87514349	     -0.01210874	      1.99569207	     -4.27827012	     -6.32103984	      5.03709325	      4.19259104	    -19.09617145	      0.00000000	      5.88945820	     -5.66560260	      3.10221386	      4.92826325	      7.01243565	      0.68012943	      0.00000000	     -4.12113305	     -0.45148666	      2.30462916	      8.60929991	     -3.64455546	     26.04886915	     76.38106355	     94.61818843	      5.91179635	     -6.15170648	     26.65076031	     62.70177617	     79.65664373
      0.08333330	     -2.09742611	      0.14513445	      4.72665516	      1.60648518	      0.87642993	     -0.01152463	      0.60019748	     -4.38515945	     -6.08743784	      4.62102132	      4.00684065	    -19.80604675	      0.00000000	      4.35178348	     -5.43343571	      4.21595302	      4.20859065	      6.06686178	     -0.85005257	      0.00000000	     -5.40539977	     -0.75247118	      2.61211459	      8.76959900	     -4.12823954	     26.81493371	     77.75387116	     94.29856451	      6.73743384	     -6.39074400	     28.15213986	     62.63480719	     79.84583886
      0.10000000	     -2.05523115	      0.16333799	      4.68830330	      1.60649078	      0.87589935	     -0.01065093	      0.55035207	     -4.33261882	     -6.09566635	      4.54225637	      4.07784665	    -19.88669106	      0.00000000	      4.29619201	     -5.46112271	      4.33183135	      4.20742606	      6.07497224	     -0.85763391	      0.00000000	     -5.29651375	     -0.80834051	      2.64390357	      8.78722567	     -4.00376239	     26.87898297	     77.85094265	     94.27964135	      6.81812203	     -6.28649971	     28.23001306	     62.68880979	     79.85825755
      0.11666670	     -1.99403412	      0.17876832	      4.73002770	      1.60671348	      0.87568202	     -0.00976939	      0.40018098	     -4.24050180	     -6.07864596	      4.37018529	      4.22259762	    -20.09213551	      0.00000000	      4.20473074	     -5.49501214	      4.60969340	      4.14217356	      6.05863162	     -0.91924623	      0.00000000	     -5.27402854	     -0.91237826	      2.75066720	      8.79497880	     -3.85452155	     27.04484708	     78.05819722	     94.23634911	      6.90512827	     -6.23694049	     28.40576128	     62.72507307	     79.88780236
      0.13333330	     -1.98165669	      0.21002628	      4.73147281	      1.60669541	      0.87617385	     -0.00920588	      0.41141671	     -4.21642891	     -6.07790727	      4.36063598	      4.22306872	    -20.09657757	      0.00000000	      4.19790701	     -5.49166204	      4.61674574	      4.14320366	      6.05566768	     -0.92228809	      0.00000000	     -5.27684637	     -0.90830217	      2.74570862	      8.78957026	     -3.86142645	     27.04781541	     78.06204333	     94.23481041	      6.90913713	     -6.23812940	     28.41099749	     62.72508913	     79.88871907
      0.15000000	     -1.03603427	      0.25593243	      4.90285098	      1.60638398	      0.87830871	     -0.00903838	     -0.97280634	     -4.06623440	     -5.75215754	      3.67709420	      3.22034018	    -21.42047557	      0.00000000	      2.97299534	     -5.51230951	      5.99226385	      3.70901263	      5.01918809	     -2.72679301	      0.00000000	     -6.66643836	     -0.85299093	      2.88142930	      8.81508142	     -4.71420419	     28.12585890	     79.95974085	     93.53385511	      7.98325836	     -6.80290076	     30.48791356	     62.60361069	     80.22835693
      0.16666670	     -1.03079255	      0.28404473	      4.89987095	      1.60652875	      0.87897613	     -0.00849426	     -0.96261636	     -4.04065241	     -5.75158274	      3.66876229	      3.22178122	    -21.42249715	      0.00000000	      2.96661336	     -5.51692219	      5.99740077	      3.71412956	      5.01385912	     -2.72426954	      0.00000000	     -6.66218470	     -0.85514609	      2.88040834	      8.81201972	     -4.71532844	     28.12575779	     79.96114299	     93.53190487	      7.98649634	     -6.80270518	     30.48981678	     62.60418965	     80.22876202
      0.18333330	     -0.57383127	      0.26598826	      4.93183226	      1.60685480	      0.88051196	     -0.00740742	     -1.74815442	     -3.83980640	     -5.30450537	      3.10105773	      2.54293093	    -22.40886744	      0.00000000	      2.31742217	     -5.64207058	      6.52897313	      3.44584616	      4.27379116	     -3.23847349	      0.00000000	     -7.20907087	     -0.98126675	      3.48438687	      8.30812398	     -5.01834367	     27.84424572	     80.98923816	     92.06257566	      8.92740076	     -7.06751053	     32.11629422	     62.25831767	     80.45620872
      0.20000000	     -0.57515486	      0.29482846	      4.92739048	      1.60699820	      0.88099286	     -0.00637099	     -1.73674992	     -3.81058977	     -5.30777128	      3.09316472	      2.54134563	    -22.40907050	      0.00000000	      2.30156297	     -5.64626859	      6.53427829	      3.45312847	      4.26790437	     -3.23334857	      0.00000000	     -7.20405179	     -0.98080663	      3.47950434	      8.30007025	     -5.02331595	     27.84342442	     80.98973315	     92.06021510	      8.92963663	     -7.07508430	     32.11522580	     62.25576107	     80.45611892
      0.21666670	     -0.52224134	      0.21176221	      4.98294203	      1.60733669	      0.88111835	     -0.00573944	     -1.99781600	     -3.61394513	     -5.36369414	      2.71733442	      2.39331782	    -22.45982700	      0.00000000	      2.09336771	     -5.82333918	      6.66762925	      3.18832225	      3.86735716	     -2.95247413	      0.00000000	     -7.08835234	     -0.93641206	      3.36780490	      7.96128568	     -5.09149319	     27.85153714	     81.11288925	     91.88777335	      8.99284381	     -7.42539340	     32.14674276	     62.08638026	     80.45058148
      0.23333330	     -0.47814703	      0.19270501	      4.93440740	      1.60689467	      0.88100670	     -0.00587908	     -2.02903718	     -3.54977596	     -5.38812703	      2.69223236	      2.36130550	    -22.47983709	      0.00000000	      2.04241945	     -5.88451727	      6.70484962	      3.20098955	      3.81415633	     -2.91236137	      0.00000000	     -7.09265235	     -0.99958694	      3.35699199	      7.94936680	     -5.11435674	     27.83971839	     81.13396626	     91.85897513	      8.99658228	     -7.47276571	     32.15783376	     62.05564756	     80.44902544
      0.25000000	     -0.45785130	      0.19481197	      4.93851536	      1.60617387	      0.88014773	     -0.00670087	     -2.02374036	     -3.54757689	     -5.38834290	      2.68173483	      2.35860757	    -22.48257496	      0.00000000	      2.04257913	     -5.88828899	      6.70561959	      3.19243239	      3.80852014	     -2.90881393	      0.00000000	     -7.09644620	     -0.99676561	      3.35619179	      7.94414239	     -5.12054161	     27.83852710	     81.13338997	     91.85597906	      9.00054252	     -7.48253207	     32.15683480	     62.05219731	     80.44871157
      0.26666670	     -0.44188674	      0.18262064	      4.96197675	      1.60548363	      0.87951985	     -0.00754852	     -2.05767983	     -3.55021352	     -5.40903990	      2.56681981	      2.31404281	    -22.55122722	      0.00000000	      2.01206858	     -5.88208399	      6.72551624	      3.06872139	      3.69723806	     -2.84655841	      0.00000000	     -7.23668315	     -0.86192551	      3.26400910	      7.85562896	     -5.34012324	     27.77970039	     81.08061148	     91.80709656	      9.16412353	     -7.63671913	     32.11840838	     62.00937624	     80.44229443
      0.28333330	     -0.41156860	      0.16824388	      4.96763929	      1.60521123	      0.87944736	     -0.00783639	     -2.05208405	     -3.55660865	     -5.40928979	      2.55798570	      2.31082620	    -22.55497654	      0.00000000	      2.01860968	     -5.87948487	      6.72585513	      3.05813048	      3.69190418	     -2.84410329	      0.00000000	     -7.23772047	     -0.86120167	      3.26317367	      7.85470172	     -5.34598294	     27.77766954	     81.07970013	     91.80443124	      9.16880775	     -7.63945803	     32.11855895	     62.00797545	     80.44203827
      0.30000000	     -0.39933928	      0.16086523	      4.96944420	      1.60560809	      0.87979739	     -0.00755641	     -2.04709004	     -3.56170746	     -5.40920413	      2.55457014	      2.31027725	    -22.55573931	      0.00000000	      2.02346490	     -5.87678311	      6.72592881	      3.05450952	      3.69098555	     -2.84375277	      0.00000000	     -7.23860924	     -0.85979480	      3.26210914	      7.85436084	     -5.34821637	     27.77696833	     81.07913147	     91.80395718	      9.17086322	     -7.63981183	     32.11828795	     62.00794076	     80.44197502
